<svg xmlns="http://www.w3.org/2000/svg" width="651" height="318" viewBox="0 0 651 318">
<g>
<path d="M 0.00 0.00 L 651.00 0.00 L 651.00 318.00 L 0.00 318.00 ZM 310.50 280.39 C316.99,281.33 344.74,280.13 351.50,278.62 C371.30,274.21 388.31,266.20 403.35,254.21 C427.14,235.25 441.37,212.20 449.17,180.00 C451.12,171.92 450.85,141.67 448.72,131.98 C442.94,105.57 430.97,83.90 412.15,65.76 C392.70,47.00 369.82,36.26 341.23,32.45 C331.16,31.11 327.45,31.02 320.51,31.94 C292.34,35.69 262.01,57.89 246.66,86.00 C238.36,101.20 233.58,123.94 235.66,138.36 C239.30,163.65 261.05,179.08 288.50,175.87 C306.68,173.74 325.42,165.32 342.73,151.50 L 351.50 144.50 L 334.00 144.00 C324.37,143.73 315.93,143.13 315.24,142.69 C314.55,142.24 313.27,140.49 312.40,138.80 C309.30,132.81 312.46,124.30 318.66,121.94 C320.03,121.42 336.50,121.00 355.49,121.00 L 389.85 121.00 L 391.93 123.63 C393.07,125.08 394.00,127.67 394.00,129.38 C394.00,132.12 391.21,148.99 386.54,174.50 C385.73,178.90 384.79,184.52 384.45,187.00 C382.99,197.47 377.01,203.56 369.03,202.69 C365.65,202.32 363.89,201.44 361.78,199.08 C360.90,198.10 360.24,197.44 359.81,196.66 C358.57,194.43 359.16,191.18 361.81,176.56 C361.98,175.59 362.17,174.57 362.36,173.50 C363.16,169.10 363.65,165.33 363.45,165.12 C363.24,164.92 360.92,166.53 358.29,168.70 C348.21,177.04 336.79,184.58 323.45,191.73 C313.12,197.27 293.39,203.06 278.78,204.85 C265.59,206.47 249.47,203.39 236.84,196.84 C223.02,189.68 213.35,177.67 208.38,161.50 C205.74,152.92 205.74,128.48 208.37,118.20 C209.40,114.19 209.96,110.63 209.62,110.29 C209.28,109.95 209.00,110.62 209.00,111.77 C209.00,112.93 208.61,114.12 208.14,114.41 C207.67,114.70 206.57,117.99 205.69,121.72 C194.74,168.40 206.09,211.90 237.49,243.59 C251.18,257.40 264.24,266.10 280.72,272.39 C288.83,275.49 303.16,279.34 310.50,280.39 Z" fill="rgb(0,0,0)"/>
<path d="M 205.24 123.71 C205.39,123.05 205.54,122.39 205.69,121.72 C206.57,117.99 207.67,114.70 208.14,114.41 C208.61,114.12 209.00,112.93 209.00,111.77 C209.00,110.62 209.28,109.95 209.62,110.29 C209.96,110.63 209.40,114.19 208.37,118.20 C207.43,121.87 206.83,127.35 206.56,133.26 C206.52,123.52 206.16,120.44 205.24,123.71 ZM 203.34 177.11 C207.59,202.12 219.26,225.20 237.49,243.59 C219.01,224.94 207.47,202.19 203.34,177.11 ZM 206.68 149.73 C206.99,154.59 207.56,158.82 208.38,161.50 C213.35,177.67 223.02,189.68 236.84,196.84 C223.03,189.68 213.40,177.73 208.36,161.50 C207.37,158.29 206.88,155.39 206.68,149.73 Z" fill="rgb(81,80,1)"/>
<path d="M 205.24 123.71 C206.16,120.44 206.52,123.52 206.56,133.26 C206.31,138.74 206.35,144.59 206.68,149.73 C206.77,152.35 206.93,154.38 207.16,156.12 C205.91,150.75 205.55,147.06 205.12,139.00 L 204.50 127.50 L 203.04 136.50 C202.84,137.69 202.67,138.88 202.51,140.06 C203.11,134.67 204.02,129.21 205.24,123.71 ZM 206.97 192.51 C212.81,211.51 223.18,229.15 237.49,243.59 C223.07,229.04 212.75,211.56 206.97,192.51 ZM 209.57 165.06 C211.79,171.12 214.71,176.53 218.29,181.26 L 218.27 181.24 C214.43,176.29 211.43,170.78 209.57,165.06 Z" fill="rgb(186,183,22)"/>
<path d="M 310.50 280.39 C303.16,279.34 288.83,275.49 280.72,272.39 C264.24,266.10 251.18,257.40 237.49,243.59 C209.66,215.50 196.73,175.31 203.04,136.50 L 204.50 127.50 L 205.12 139.00 C205.71,150.00 206.16,152.86 208.95,163.00 C212.78,176.93 223.47,189.91 236.84,196.84 C249.47,203.39 265.59,206.47 278.78,204.85 C293.39,203.06 313.12,197.27 323.45,191.73 C336.79,184.58 348.21,177.04 358.29,168.70 C360.92,166.53 363.24,164.92 363.45,165.12 C363.65,165.33 363.16,169.10 362.36,173.50 C358.21,196.43 358.24,195.12 361.78,199.08 C363.89,201.44 365.65,202.32 369.03,202.69 C377.01,203.56 382.99,197.47 384.45,187.00 C384.79,184.52 385.73,178.90 386.54,174.50 C391.21,148.99 394.00,132.12 394.00,129.38 C394.00,127.67 393.07,125.08 391.93,123.63 L 389.85 121.00 L 355.49 121.00 C336.50,121.00 320.03,121.42 318.66,121.94 C312.46,124.30 309.30,132.81 312.40,138.80 C313.27,140.49 314.55,142.24 315.24,142.69 C315.93,143.13 324.37,143.73 334.00,144.00 L 351.50 144.50 L 342.73 151.50 C325.42,165.32 306.68,173.74 288.50,175.87 C261.05,179.08 239.30,163.65 235.66,138.36 C233.58,123.94 238.36,101.20 246.66,86.00 C262.01,57.89 292.34,35.69 320.51,31.94 C327.45,31.02 331.16,31.11 341.23,32.45 C369.82,36.26 392.70,47.00 412.15,65.76 C430.97,83.90 442.94,105.57 448.72,131.98 C450.85,141.67 451.12,171.92 449.17,180.00 C441.37,212.20 427.14,235.25 403.35,254.21 C388.31,266.20 371.30,274.21 351.50,278.62 C344.74,280.13 316.99,281.33 310.50,280.39 Z" fill="rgb(254,254,2)"/>
</g>
</svg>